<?xml version="1.0" encoding="UTF-8"?>
<svg width="300px" height="150px" viewBox="0 0 300 150" version="1.1" xmlns="http://www.w3.org/2000/svg" xmlns:xlink="http://www.w3.org/1999/xlink">
    <!-- Generator: Sketch 48.2 (47327) - http://www.bohemiancoding.com/sketch -->
    <title>Méthodologies/Scrum/Original</title>
    <desc>Created with Sketch.</desc>
    <defs></defs>
    <g id="Logos" stroke="none" stroke-width="1" fill="none" fill-rule="evenodd">
        <g id="Méthodologies/Scrum/Original" fill-rule="nonzero">
            <path d="M254.85961,52.781337 C258.747911,50.7147632 262.17493,48.8454039 266.296379,49.6309192 C267.821448,49.921727 269.632312,50.0236769 270.531476,51.1727019 C273.100279,54.4534819 275.346518,53.4473538 278.479387,51.7844011 C287.232033,47.1381616 295.831755,51.0214485 298.245125,60.6440111 C300.554039,69.8512535 299.135097,79.1905292 298.429805,88.4771588 C298.255989,90.7685237 296.347354,90.3281337 294.98273,90.6097493 C293.765181,90.8612813 292.475766,90.7501393 291.245682,90.9615599 C288.882451,91.3685237 288.22312,90.8203343 288.529805,88.1604457 C289.43649,80.2961003 290.571309,72.375766 289.044568,64.4654596 C288.045125,59.2877437 284.314763,57.6841226 279.742897,60.167688 C277.85766,61.1922006 277.05376,62.4766017 277.132312,64.8064067 C277.370474,71.8952646 277.06546,79.0050139 277.380501,86.0888579 C277.540111,89.6947075 276.070195,90.5194986 272.868802,90.6431755 C267.122006,90.8662953 267.150418,91.024234 267.350975,85.4604457 C267.595822,78.6506964 268.290251,71.843454 267.418663,65.0270195 C266.98663,61.6476323 266.235376,58.5172702 261.930919,58.5373259 C257.802786,58.556546 255.007521,61.3576602 254.994986,65.6236769 C254.97493,72.4409471 254.904735,79.275766 255.360167,86.0688022 C255.58078,89.3629526 254.568802,90.629805 251.487744,90.7334262 C250.237604,90.7752089 248.97493,90.8587744 247.747354,91.0818942 C245.823677,91.4328691 245.385794,90.678273 245.472702,88.8356546 C245.995822,77.8334262 245.486072,66.8428969 244.679666,55.8732591 C244.478273,53.1289694 245.197772,51.7050139 247.976323,51.308078 C249.049304,51.1551532 250.110585,50.6454039 251.083287,50.1231198 C253.641226,48.7526462 255.540669,48.4325905 254.85961,52.781337 Z M137.392479,44.0980501 C133.713928,42.9916435 130.369638,41.9612813 126.854039,42.4610028 C123.864903,42.886351 121.088858,43.7922006 119.991643,47.0529248 C118.906128,50.2785515 120.321727,52.7988858 122.596379,54.85961 C125.069081,57.0991643 127.719777,59.1431755 130.301114,61.2632312 C132.462117,63.0373259 134.488579,64.943454 136.027019,67.2991643 C142.261838,76.8456825 137.130084,88.7696379 125.91727,90.7250696 C124.28273,91.0100279 122.575487,91.1554318 120.926741,91.0342618 C110.4961,90.264624 111.498886,90.8754875 110.359889,79.8155989 C113.566295,80.8651811 116.645682,82.2097493 119.962396,82.2189415 C123.205571,82.2281337 126.652646,82.0142061 128.190251,78.5278552 C129.758774,74.9729805 127.605292,72.3774373 125.087465,70.2013928 C122.034819,67.5640669 118.768245,65.1707521 115.760724,62.4857939 C109.784958,57.1509749 107.944011,50.4189415 110.429248,43.7103064 C112.792479,37.3300836 119.130084,33.2880223 126.950139,33.1752089 C136.022841,33.0440111 136.022841,33.0440111 137.392479,44.0980501 Z M238.529248,70.2506964 C238.529248,75.8094708 238.422284,81.3715877 238.58273,86.9253482 C238.645404,89.086351 238.076323,90.7969359 235.883565,90.4935933 C233.805292,90.2061281 230.946518,94.1479109 229.644568,89.5685237 C229.201671,88.0100279 228.432869,88.9284123 227.857103,89.197493 C225.554875,90.2746518 223.170752,90.8662953 220.618663,90.9038997 C213.169638,91.0142061 207.995265,87.3381616 206.377437,80.0721448 C204.41532,71.2643454 205.7039,62.362117 206.299721,53.4991643 C206.379944,52.302507 207.113649,51.9649025 208.154039,51.6523677 C216.224791,49.2272981 217.062953,49.8314763 216.045125,57.8821727 C215.328134,63.5571031 215.016435,69.2495822 215.461838,74.9370474 C215.939833,81.0431755 219.79805,83.3955432 225.626741,81.6473538 C228.174652,80.8835655 229.124791,79.5231198 228.995265,76.8306407 C228.669359,70.0309192 228.757103,63.2103064 228.36351,56.4164345 C228.215599,53.8610028 228.684401,52.8130919 231.384401,52.2373259 C238.849304,50.6470752 238.77493,50.4832869 238.600279,58.162117 C238.509192,62.1891365 238.584401,66.2194986 238.584401,70.2490251 C238.566017,70.2506964 238.547632,70.2506964 238.529248,70.2506964 Z M170.781058,81.3398329 C171.37688,89.616156 170.348189,90.7710306 162.545682,90.9724234 C154.650418,91.1754875 148.058774,88.5874652 144.852368,81.0415042 C141.147911,72.3206128 141.486351,63.4994429 147.690251,55.8799443 C153.020056,49.3350975 160.474095,48.6674095 168.257382,50.0412256 C169.933705,50.3370474 171.771309,57.5061281 170.550418,58.7395543 C169.656267,59.6420613 168.75376,58.764624 167.869638,58.5874652 C157.618663,56.5359331 150.841504,62.9571031 152.42507,73.2306407 C153.583287,80.7431755 159.076045,84.1593315 167.199443,82.3844011 C168.404457,82.1194986 169.573538,81.6958217 170.781058,81.3398329 Z M187.144847,49.3417827 C187.144847,51.2044568 187.144847,52.8456825 187.144847,55.0125348 C190.118942,52.3208914 192.700279,49.5983287 196.713928,49.4554318 C199.630362,49.3518106 201.788858,49.7044568 200.602228,53.5200557 C200.193593,54.8345404 200.057382,56.248468 199.923677,57.629805 C199.734819,59.5768802 198.865738,59.9512535 196.901114,59.8116992 C190.173259,59.3328691 187.05961,62.3036212 187.131476,68.9763231 C187.195822,74.9587744 187.294429,80.9504178 187.716435,86.913649 C187.908635,89.6311978 187.175766,90.8002786 184.46156,90.7760446 C183.073538,90.7635097 181.673816,90.8821727 180.298329,91.0743733 C178.419777,91.3359331 177.907521,90.5579387 177.942618,88.7504178 C178.162396,77.3345404 178.035376,65.9203343 177.404457,54.5178273 C177.32507,53.0796657 177.532312,52.1311978 179.098329,51.7133705 C181.740669,51.010585 184.347911,50.1740947 187.144847,49.3417827 Z" id="Combined-Shape" fill="#1E459B"></path>
            <path d="M15.4370474,105.885515 C10.7206128,105.856267 7.02116992,102.063231 7.11643454,97.3568245 C7.21169916,92.681337 11.0791086,89.0245125 15.786351,89.1590529 C20.262117,89.2860724 23.9164345,93.0256267 23.9348189,97.4963788 C23.9532033,102.137604 20.1275766,105.914763 15.4370474,105.885515 Z M30.8256267,78.610585 C30.7337047,82.9902507 27.1662953,86.4908078 22.8208914,86.4640669 C18.5239554,86.4381616 14.9473538,82.7997214 14.9498607,78.4568245 C14.9523677,73.9250696 18.735376,70.2364903 23.1952646,70.4169916 C27.6083565,70.5966574 30.9192201,74.151532 30.8256267,78.610585 Z M37.8083565,73.8030641 C33.902507,73.8799443 30.3142061,70.370195 30.2314763,66.3916435 C30.1487465,62.4038997 33.5523677,58.9802228 37.637883,58.9417827 C41.8888579,58.9016713 45.0576602,61.9927577 45.0986072,66.2178273 C45.137883,70.3342618 41.881337,73.7220056 37.8083565,73.8030641 Z M56.8796657,55.9559889 C60.6718663,56.0637883 63.5456825,59.1573816 63.4746518,63.056546 C63.4052925,66.8579387 60.2649025,69.8963788 56.513649,69.7935933 C52.7423398,69.6899721 49.8493036,66.5688022 49.9245125,62.683844 C49.9980501,58.8498607 53.1016713,55.8481894 56.8796657,55.9559889 Z M80.9615599,68.1766017 C80.9164345,71.7632312 78.0994429,74.4866295 74.5704735,74.3554318 C71.191922,74.2300836 68.5286908,71.5584958 68.467688,68.2325905 C68.4041783,64.7947075 71.3247911,61.7671309 74.7116992,61.7587744 C78.1571031,61.7495822 81.0058496,64.6752089 80.9615599,68.1766017 Z M88.1682451,75.8846797 C91.2108635,75.8980501 93.6091922,78.4 93.5548747,81.5052925 C93.4997214,84.6632312 91.1172702,86.9211699 87.9142061,86.7532033 C84.5908078,86.5785515 82.9211699,84.5771588 82.6988858,81.4426184 C82.4857939,78.4409471 85.1506964,75.8713092 88.1682451,75.8846797 Z M53.1200557,34.9309192 C49.6779944,34.6493036 47.932312,32.7339833 47.7501393,29.545961 C47.5930362,26.7924791 50.3456825,24.2470752 53.1467967,24.2537604 C56.008078,24.2604457 58.4389972,26.7239554 58.3169916,29.6729805 C58.1799443,33.008078 56.2069638,34.6133705 53.1200557,34.9309192 Z M94.0286908,103.324234 C90.9509749,103.123677 88.937883,101.523398 88.7857939,98.4749304 C88.6362117,95.4699164 90.3116992,93.470195 93.4462396,93.1359331 C96.3426184,92.8267409 99.0584958,95.2208914 98.9548747,98.1072423 C98.8462396,101.166574 97.0579387,102.883008 94.0286908,103.324234 Z M47.1133705,23.2108635 C43.7072423,22.9827298 41.7501393,21.4476323 41.651532,18.3197772 C41.5529248,15.2086351 43.3545961,13.2933148 46.4373259,13.1805014 C49.5325905,13.067688 51.435376,14.889415 51.5749304,17.9771588 C51.7169916,21.1284123 49.7415042,22.6802228 47.1133705,23.2108635 Z M35.9272981,7.15208914 C38.8629526,7.36267409 40.6855153,8.82674095 40.6746518,11.8083565 C40.6637883,14.7640669 38.8888579,16.435376 35.9573816,16.4320334 C33.1880223,16.4295265 31.5877437,14.7857939 31.4849582,12.0272981 C31.3738162,9.05153203 32.9874652,7.44707521 35.9272981,7.15208914 Z M91.4857939,110.886072 C94.0562674,111.147632 95.7417827,112.500557 95.7910864,115.096936 C95.8445682,117.908914 94.1465181,119.546797 91.3420613,119.472423 C88.7398329,119.4039 87.1746518,117.772702 87.2465181,115.162117 C87.3167131,112.6 88.8910864,111.150139 91.4857939,110.886072 Z M23.6649025,7.11699164 C26.4016713,7.23816156 28.0261838,8.78245125 27.9777159,11.5091922 C27.9334262,14.0153203 26.3590529,15.6139276 23.7551532,15.6389972 C20.9398329,15.6657382 19.3044568,13.970195 19.3562674,11.2760446 C19.4038997,8.81337047 20.9456825,7.25988858 23.6649025,7.11699164 Z M12.3935933,20.6270195 C9.88662953,20.3938719 8.44011142,18.9465181 8.47771588,16.5866295 C8.51532033,14.2208914 10.0562674,12.6532033 12.4855153,12.7125348 C14.8821727,12.7710306 16.3972145,14.3103064 16.3662953,16.7245125 C16.3345404,19.1520891 14.7810585,20.429805 12.3935933,20.6270195 Z M86.6005571,130.40195 C86.0891365,132.688301 85.0387187,134.260167 82.6587744,134.144847 C80.3573816,134.033705 79.0947075,132.660724 79.1456825,130.341783 C79.197493,127.975209 80.6272981,126.755153 82.8969359,126.794429 C85.2401114,126.83454 86.2345404,128.441504 86.6005571,130.40195 Z M5.28885794,22.4905292 C7.27520891,22.6442897 8.68495822,23.6796657 8.87130919,25.7303621 C9.07771588,28.0116992 7.74735376,29.4791086 5.52451253,29.613649 C3.21810585,29.7532033 1.8810585,28.232312 1.86768802,26.0328691 C1.8551532,24.0155989 3.15793872,22.7846797 5.28885794,22.4905292 Z M69.2130919,135.348189 C71.3740947,135.824513 72.7437326,137.019499 72.5239554,139.328412 C72.3275766,141.393315 70.964624,142.597493 68.9239554,142.49805 C66.9016713,142.399443 65.586351,141.118384 65.5846797,139.030084 C65.5830084,136.732869 67.0537604,135.643175 69.2130919,135.348189 Z M6.57493036,37.2272981 C6.45877437,39.3364903 5.28551532,40.5582173 3.19972145,40.5231198 C1.31364903,40.4913649 0.0710306407,39.2487465 0.0576601671,37.3802228 C0.043454039,35.316156 1.30696379,34.0334262 3.43370474,34.0584958 C5.37743733,34.0818942 6.37771588,35.2869081 6.57493036,37.2272981 Z M6.30250696,45.0506964 C7.99052925,45.3481894 9.04094708,46.1587744 9.06183844,47.7832869 C9.08523677,49.5849582 8.08077994,50.6554318 6.26406685,50.635376 C4.64122563,50.6169916 3.66183844,49.5222841 3.60668524,48.0072423 C3.54233983,46.2272981 4.77660167,45.3590529 6.30250696,45.0506964 Z M15.7002786,56.3980501 C15.6392758,58.1044568 14.9047354,59.0144847 13.4356546,59.0963788 C11.9381616,59.1799443 11.0490251,58.256546 10.9729805,56.8576602 C10.8952646,55.4311978 11.7910864,54.4593315 13.2208914,54.3732591 C14.6857939,54.2855153 15.4245125,55.2657382 15.7002786,56.3980501 Z M25.0980501,61.002507 C24.8849582,62.4941504 24.0551532,63.3122563 22.5610028,63.1584958 C21.2665738,63.0247911 20.6281337,62.1598886 20.6665738,60.8579387 C20.7050139,59.5325905 21.5047354,58.7044568 22.7306407,58.6835655 C24.1387187,58.6601671 25.0512535,59.4874652 25.0980501,61.002507 Z" id="Combined-Shape" fill="#F79A2E"></path>
        </g>
    </g>
</svg>